# xmcd CD database file
#
# Track frame offsets:
#	150
#	17739
#	37567
#	56803
#	73713
#	86130
#	101356
#	121912
#
# Disc length: 2082 seconds
#
# Revision: 0
# Processed by: cddbd v1.5.1PL2 Copyright (c) Steve Scherf et al.
# Submitted via: CDex 1.51
#
DISCID=5e082008
DTITLE=MABO - デラコスタ
DYEAR=1900
DGENRE=Rap
TTITLE0=i-life
TTITLE1=哀愁(DJ WATARAI MIX)
TTITLE2=モニマニー(ロンドンの宝石MIX)
TTITLE3=Jungle☆Jungle  feat.DELI(AQUARIUS REMIX)
TTITLE4=MORE DEEP
TTITLE5=RULE(めばえミックス)
TTITLE6=夜シャク(D.O.I REMIX)
TTITLE7=美ら　feat.SUIKEN×S-WORD(サンゴショウバージョン)
EXTD=
EXTT0=
EXTT1=
EXTT2=
EXTT3=
EXTT4=
EXTT5=
EXTT6=
EXTT7=
PLAYORDER=
